<?xml version="1.0" standalone="no"?>
<!DOCTYPE svg PUBLIC "-//W3C//DTD SVG 20010904//EN"
 "http://www.w3.org/TR/2001/REC-SVG-20010904/DTD/svg10.dtd">
<svg version="1.0" xmlns="http://www.w3.org/2000/svg"
 width="500.000000pt" height="500.000000pt" viewBox="0 0 500.000000 500.000000"
 preserveAspectRatio="xMidYMid meet">
<metadata>
Created by potrace 1.14, written by Peter Selinger 2001-2017
</metadata>
<g transform="translate(0.000000,500.000000) scale(0.100000,-0.100000)"
fill="#000000" stroke="none">
<path d="M2409 4737 c-113 -38 -131 -47 -172 -89 -26 -27 -51 -48 -56 -48 -6
0 -18 -14 -27 -31 -8 -17 -33 -50 -53 -73 -25 -27 -42 -59 -50 -91 -7 -27 -24
-77 -39 -110 -24 -52 -27 -73 -27 -162 0 -88 3 -105 22 -130 21 -30 45 -91 58
-150 3 -18 24 -54 46 -80 21 -26 39 -52 39 -57 0 -10 65 -87 126 -149 23 -23
49 -59 57 -78 10 -24 23 -38 41 -43 35 -9 47 -34 36 -80 -11 -52 -28 -67 -42
-41 -22 38 -69 75 -91 71 -163 -33 -166 -35 -246 -117 -93 -95 -161 -176 -161
-191 0 -6 -16 -35 -36 -64 -25 -36 -42 -78 -55 -135 -11 -46 -33 -110 -49
-144 -25 -50 -32 -84 -44 -205 -11 -105 -24 -170 -46 -234 -16 -50 -35 -130
-41 -178 -9 -70 -18 -97 -40 -127 -15 -21 -37 -70 -49 -107 -11 -38 -31 -80
-44 -94 -13 -14 -33 -43 -44 -65 -11 -22 -45 -64 -76 -93 l-56 -53 -68 5 c-37
3 -132 11 -211 17 -160 13 -363 7 -486 -16 -73 -13 -83 -18 -115 -54 -19 -21
-44 -44 -55 -49 -22 -11 -28 -22 -70 -117 -22 -52 -24 -66 -16 -105 23 -105
53 -175 92 -212 21 -21 39 -41 39 -47 0 -12 136 -151 148 -151 5 0 33 -20 60
-45 31 -28 73 -53 108 -66 32 -10 70 -30 84 -43 36 -34 55 -42 145 -60 52 -11
94 -26 120 -45 53 -38 88 -47 230 -66 66 -8 161 -22 210 -31 118 -20 504 -30
605 -15 335 50 567 53 845 11 132 -19 177 -22 375 -17 183 4 253 10 373 31 82
14 165 26 186 26 53 0 129 25 179 59 24 17 69 35 100 42 95 19 120 29 162 64
22 19 65 41 96 50 36 10 69 29 93 52 20 19 52 43 71 53 20 10 42 30 50 44 7
15 28 36 46 47 18 11 36 29 39 39 3 10 25 39 48 64 44 46 70 106 89 207 9 52
8 62 -17 125 -21 53 -40 81 -83 122 -32 30 -66 60 -77 67 -11 7 -81 20 -155
29 -74 9 -152 19 -173 21 -20 3 -106 -1 -190 -9 -83 -8 -192 -18 -240 -21
l-89 -7 -59 64 c-32 34 -62 72 -65 83 -3 11 -20 34 -36 52 -20 20 -37 55 -49
100 -11 37 -27 79 -37 93 -35 47 -43 71 -57 163 -8 51 -25 124 -39 163 -14 38
-31 110 -36 159 -24 205 -31 239 -55 283 -26 46 -35 77 -55 174 -7 36 -22 71
-41 95 -17 21 -37 53 -45 72 -16 38 -54 84 -157 192 -62 64 -76 73 -135 90
-101 29 -145 26 -176 -12 -14 -17 -26 -35 -26 -40 0 -24 -30 -5 -40 26 -18 54
-10 77 33 100 26 14 40 29 44 48 3 16 22 41 44 59 20 16 43 42 49 58 6 15 24
37 40 49 17 12 37 36 46 54 9 17 29 46 44 64 16 17 35 58 44 90 9 32 30 85 48
118 29 55 32 67 32 155 0 82 -4 103 -26 150 -14 30 -34 81 -43 114 -10 34 -31
74 -49 95 -18 20 -41 51 -52 69 -10 17 -22 32 -26 32 -4 0 -30 22 -57 49 -34
34 -64 54 -93 61 -24 7 -71 23 -105 36 -108 41 -150 40 -294 -9z m270 -286
c14 -12 42 -32 62 -45 20 -14 58 -57 85 -97 40 -61 49 -82 52 -131 7 -92 -5
-142 -44 -189 -19 -22 -34 -47 -34 -55 0 -7 -19 -36 -42 -63 -24 -28 -70 -82
-103 -121 -32 -38 -68 -73 -78 -76 -14 -4 -34 10 -80 60 -100 107 -138 154
-159 199 -11 23 -32 55 -47 70 -24 26 -26 36 -29 129 l-4 100 35 52 c19 28 40
61 46 73 6 11 28 31 48 44 21 12 49 32 63 45 31 28 57 33 139 29 46 -2 70 -9
90 -24z m-379 -1356 c0 -8 -4 -15 -10 -15 -5 0 -10 7 -10 15 0 8 5 15 10 15 6
0 10 -7 10 -15z m560 -1 c0 -17 -22 -14 -28 4 -2 7 3 12 12 12 9 0 16 -7 16
-16z m-624 -71 c11 -42 -11 -125 -45 -174 -22 -31 -35 -68 -46 -124 -8 -44
-24 -92 -35 -107 -31 -43 -40 -74 -55 -193 -8 -60 -27 -146 -42 -190 -27 -77
-28 -87 -28 -285 0 -161 4 -217 17 -260 23 -77 45 -189 59 -299 10 -79 17 -99
41 -126 47 -54 17 -87 -39 -42 -33 27 -86 52 -130 61 -18 4 -50 25 -72 46 -27
26 -59 45 -95 55 -67 20 -100 45 -126 96 -27 52 -26 63 15 108 19 21 35 43 35
49 0 5 19 38 41 72 31 46 47 85 64 154 12 51 31 106 42 122 29 42 41 86 53
204 6 58 20 130 31 160 36 97 48 150 55 228 7 89 20 138 45 170 17 22 40 85
53 144 4 15 21 43 39 62 17 19 42 48 55 65 30 39 59 41 68 4z m741 -10 c15
-21 40 -52 54 -70 16 -19 32 -54 39 -87 6 -30 23 -72 37 -92 36 -54 42 -75 54
-188 6 -60 22 -135 40 -185 17 -49 35 -136 44 -205 13 -98 22 -134 50 -191 19
-38 41 -103 50 -143 16 -76 34 -120 58 -140 8 -7 22 -31 32 -54 11 -24 34 -60
53 -81 38 -43 37 -57 -9 -123 -28 -41 -50 -54 -124 -73 -22 -6 -59 -28 -81
-48 -25 -22 -70 -48 -110 -63 -37 -14 -81 -36 -96 -49 -50 -41 -82 -2 -34 42
25 23 37 71 51 202 4 33 21 114 38 180 29 114 31 129 31 315 0 188 -1 198 -27
270 -16 41 -35 122 -43 180 -16 116 -29 167 -50 191 -18 20 -41 91 -49 151 -4
29 -19 66 -39 96 -83 119 -53 278 31 165z m-367 -75 c7 -33 24 -73 37 -88 30
-36 49 -83 57 -142 4 -26 18 -64 32 -84 34 -50 42 -72 55 -157 6 -40 27 -119
47 -177 l37 -105 -1 -255 c-1 -268 1 -253 -53 -401 -11 -31 -23 -93 -27 -138
-6 -73 -10 -85 -36 -109 -15 -15 -40 -46 -55 -69 -15 -24 -35 -45 -44 -48 -10
-3 -34 -19 -54 -35 l-37 -30 -28 23 c-15 12 -41 30 -58 39 -17 9 -41 36 -53
59 -12 24 -34 59 -49 79 -20 24 -30 52 -35 90 -9 75 -22 123 -51 199 -20 52
-28 96 -36 218 -15 208 -2 365 41 482 17 46 38 127 47 180 11 71 23 108 44
141 16 25 36 75 43 111 8 38 29 91 50 125 19 32 39 75 42 94 4 19 14 48 22 63
14 27 16 28 32 13 10 -9 24 -44 31 -78z m-1629 -1618 c31 -9 40 -18 61 -68 30
-68 40 -77 100 -93 41 -11 55 -10 105 5 32 10 75 29 96 42 35 23 38 24 62 8
14 -9 61 -27 104 -39 53 -15 93 -34 122 -57 24 -20 67 -43 96 -52 28 -9 64
-29 79 -44 16 -15 60 -43 99 -62 48 -24 74 -44 83 -63 14 -29 64 -57 100 -57
28 0 48 -26 33 -44 -16 -19 -199 -26 -430 -16 -178 9 -204 12 -284 39 -49 17
-138 38 -198 47 -94 14 -115 21 -152 49 -39 30 -72 44 -138 59 -15 3 -47 22
-70 42 -24 20 -64 45 -87 55 -52 23 -182 135 -182 158 0 30 45 71 100 91 47
18 71 20 160 16 58 -3 121 -10 141 -16z m3468 2 c38 -12 62 -28 83 -53 35 -43
29 -64 -28 -103 -20 -13 -43 -34 -51 -46 -8 -11 -40 -32 -70 -46 -31 -13 -73
-39 -93 -58 -26 -24 -55 -38 -92 -45 -29 -6 -69 -22 -87 -34 -19 -12 -46 -30
-60 -39 -14 -10 -46 -20 -71 -23 -91 -12 -157 -27 -250 -56 -85 -27 -114 -31
-290 -39 -107 -4 -247 -5 -310 -2 -108 7 -115 8 -118 29 -3 18 5 24 52 37 42
12 62 25 83 53 17 22 49 46 82 60 30 13 74 42 98 63 25 21 59 42 76 46 43 9
98 38 119 62 9 12 55 32 104 47 48 15 98 34 111 42 21 14 25 14 42 -1 10 -9
52 -30 92 -45 l73 -28 59 20 c57 19 60 22 89 83 17 35 33 64 37 64 3 1 29 7
56 15 69 19 198 18 264 -3z"/>
</g>
</svg>
